<svg width="100px" height="100px" viewBox="0 0 100 100" version="1.1" xmlns="http://www.w3.org/2000/svg" xmlns:xlink="http://www.w3.org/1999/xlink">
    <defs>
        <linearGradient x1="50%" y1="-9.78597695%" x2="50%" y2="100%" id="linearGradient-1">
            <stop stop-color="#3674B5" offset="0%"></stop>
            <stop stop-color="#19407E" offset="100%"></stop>
        </linearGradient>
    </defs>
    <g id="Page-1" stroke="none" stroke-width="1" fill="none" fill-rule="evenodd">
        <g id="Rob" fill-rule="nonzero">
            <path d="M0,50 C0,90.8507828 0.38590998,100 50,100 C99.61409,100 100,90.8507828 100,50 C100,9.14921722 99.61409,0 50,0 C0.38590998,0 0,9.14921722 0,50 Z" id="Path" fill="#19407E"></path>
            <path d="M0,50 C0,90.8507828 0.38590998,100 50,100 C99.61409,100 100,90.8507828 100,50 C100,9.14921722 99.61409,0 50,0 C0.38590998,0 0,9.14921722 0,50 Z" id="Path" fill="url(#linearGradient-1)"></path>
            <g id="robot" transform="translate(19.245283, 18.113208)" fill="#FFFFFF" stroke="#FFFFFF">
                <path d="M51.0106191,25.6285351 L51.0106191,21.1757494 C51.0106191,18.6098103 48.939885,16.5225465 46.3942667,16.5225465 L41.752607,16.5225465 L41.752607,14.6033442 C41.752607,12.6638844 40.1872751,11.086057 38.2631746,11.086057 L31.5165416,11.086057 L31.5165416,8.2046275 C33.4184052,7.8427607 34.8630621,6.16148918 34.8630621,4.1407653 C34.8630621,1.85767979 33.020094,0 30.7543448,0 C28.4885956,0 26.6456275,1.85767986 26.6456275,4.1407653 C26.6456275,6.16148918 28.0902844,7.8427607 29.992148,8.2046275 L29.992148,11.086057 L23.245515,11.086057 C21.3214145,11.086057 19.7560826,12.6638844 19.7560826,14.6033442 L19.7560826,16.5225465 L15.1144229,16.5225465 C12.5688045,16.5225465 10.4980705,18.6098104 10.4980705,21.1757494 L10.4980705,25.6285351 C4.64454393,26.0265558 0,30.9410418 0,36.9405186 C0,42.9399954 4.64454393,47.8537779 10.4980705,48.2517517 L10.4980705,52.7052877 C10.4980705,55.2712268 12.5688046,57.3584906 15.1144229,57.3584906 L46.3942667,57.3584906 C48.9398851,57.3584906 51.0106191,55.2712267 51.0106191,52.7052877 L51.0106191,48.2517517 C56.8641922,47.8537779 61.509434,42.9399953 61.509434,36.9405186 C61.509434,30.9410418 56.8641922,26.0265558 51.0106191,25.6285351 Z M10.4980705,46.7151894 C5.48587266,46.3208263 1.52439368,42.0921851 1.52439368,36.9405186 C1.52439368,31.7881486 5.48587266,27.5594606 10.4980705,27.1650975 L10.4980705,46.7151894 Z M28.1700211,4.14076538 C28.1700211,2.70473988 29.3296917,1.53656239 30.7543448,1.53656239 C32.1789979,1.53656239 33.3386685,2.70473988 33.3386685,4.14076538 C33.3386685,5.57679088 32.1789979,6.74571867 30.7543448,6.74571867 C29.3296917,6.74571867 28.1700211,5.57679088 28.1700211,4.14076538 Z M21.2804763,14.6033442 C21.2804763,13.5109444 22.1617664,12.6226193 23.245515,12.6226193 L38.2631746,12.6226193 C39.3469232,12.6226193 40.2282133,13.5109444 40.2282133,14.6033442 L40.2282133,16.5225465 L21.2804763,16.5225465 L21.2804763,14.6033442 Z M49.4862254,52.7052877 C49.4862254,54.4241668 48.0995333,55.8219283 46.3942667,55.8219283 L15.114423,55.8219283 C13.4091564,55.8219283 12.0224643,54.4241668 12.0224643,52.7052877 L12.0224643,21.1757494 C12.0224643,19.4568703 13.4091564,18.0591088 15.114423,18.0591088 L46.3942667,18.0591088 C48.0995333,18.0591088 49.4862254,19.4568703 49.4862254,21.1757494 L49.4862254,52.7052877 Z M51.0106191,46.7151894 L51.0106191,27.1650975 C56.0235147,27.5594136 59.9850403,31.7881018 59.9850403,36.9405186 C59.9850403,42.0921851 56.0235147,46.3208732 51.0106191,46.7151894 Z" id="Shape"></path>
                <path d="M29.9996252,50.3284824 C25.5400689,50.3284824 21.9126033,46.6884347 21.9126033,42.2143346 L20.3773585,42.2143346 C20.3773585,47.5375285 24.6937352,51.868734 29.9996252,51.868734 C35.3055152,51.868734 39.6226415,47.5375285 39.6226415,42.2143346 L38.0873967,42.2143346 C38.0873967,46.6884347 34.4591815,50.3284824 29.9996252,50.3284824 Z" id="Path"></path>
                <path d="M42.5385967,27.4487826 L18.9700896,27.4487826 C16.8333432,27.4487826 15.0943396,29.2747641 15.0943396,31.519167 C15.0943396,33.7627849 16.8333432,35.5887664 18.9700896,35.5887664 L42.5385967,35.5887664 C44.6760908,35.5887664 46.4150943,33.7627849 46.4150943,31.519167 C46.4150943,29.2747641 44.6760907,27.4487826 42.5385967,27.4487826 Z M42.5385967,33.9810235 L18.9700896,33.9810235 C17.6774252,33.9810235 16.6255001,32.8764852 16.6255001,31.519167 C16.6255001,30.1610639 17.6774252,29.0565256 18.9700896,29.0565256 L42.5385967,29.0565256 C43.8320086,29.0565256 44.8839339,30.1610638 44.8839339,31.519167 C44.8839338,32.8764852 43.8320086,33.9810235 42.5385967,33.9810235 Z" id="Shape"></path>
                <rect id="Rectangle" x="21.8867925" y="30.0990099" width="10.9433962" height="1.32511364"></rect>
                <rect id="Rectangle" x="35.4716981" y="30.0990099" width="2.83018868" height="1.32511364"></rect>
            </g>
        </g>
    </g>
</svg>