<svg width="530px" height="530px" viewBox="0 0 530 530" version="1.1" xmlns="http://www.w3.org/2000/svg" xmlns:xlink="http://www.w3.org/1999/xlink">
    <defs>
        <linearGradient x1="50%" y1="-9.78597695%" x2="50%" y2="100%" id="linearGradient-1">
            <stop stop-color="#3674B5" offset="0%"></stop>
            <stop stop-color="#19407E" offset="100%"></stop>
        </linearGradient>
    </defs>
    <g id="Page-1" stroke="none" stroke-width="1" fill="none" fill-rule="evenodd">
        <g id="Rob" fill-rule="nonzero">
            <path d="M0,265 C0,481.509149 2.0453229,530 265,530 C527.954677,530 530,481.509149 530,265 C530,48.4908513 527.954677,0 265,0 C2.0453229,0 0,48.4908513 0,265 Z" id="Path" fill="#19407E"></path>
            <path d="M0,265 C0,481.509149 2.0453229,530 265,530 C527.954677,530 530,481.509149 530,265 C530,48.4908513 527.954677,0 265,0 C2.0453229,0 0,48.4908513 0,265 Z" id="Path" fill="url(#linearGradient-1)"></path>
            <g id="robot" transform="translate(102.000000, 97.000000)" fill="#FFFFFF" stroke="#FFFFFF">
                <path d="M270.356281,135.384423 L270.356281,111.862289 C270.356281,98.3075472 259.381391,87.281439 245.889614,87.281439 L221.288817,87.281439 L221.288817,77.1431263 C221.288817,66.8978024 212.992558,58.5628254 202.794825,58.5628254 L167.037671,58.5628254 L167.037671,43.3414846 C177.117547,41.4298994 184.774229,32.5484719 184.774229,21.8738651 C184.774229,9.81331569 175.006498,0 162.998027,0 C150.989557,0 141.221826,9.8133161 141.221826,21.8738651 C141.221826,32.5484719 148.878508,41.4298994 158.958384,43.3414846 L158.958384,58.5628254 L123.201229,58.5628254 C113.003497,58.5628254 104.707238,66.8978024 104.707238,77.1431263 L104.707238,87.281439 L80.1064412,87.281439 C66.6146638,87.281439 55.6397739,98.3075477 55.6397739,111.862289 L55.6397739,135.384423 C24.6160828,137.486993 0,163.448089 0,195.14072 C0,226.833351 24.6160828,252.79073 55.6397739,254.893053 L55.6397739,278.41915 C55.6397739,291.973892 66.6146642,303 80.1064412,303 L245.889614,303 C259.381391,303 270.356281,291.973891 270.356281,278.41915 L270.356281,254.893053 C301.380218,252.79073 326,226.83335 326,195.14072 C326,163.448089 301.380218,137.486993 270.356281,135.384423 Z M55.6397739,246.776061 C29.0751251,244.692812 8.07928651,222.354737 8.07928651,195.14072 C8.07928651,167.922987 29.0751251,145.584664 55.6397739,143.501415 L55.6397739,246.776061 Z M149.301112,21.8738655 C149.301112,14.2879664 155.447366,8.11699191 162.998027,8.11699191 C170.548689,8.11699191 176.694943,14.2879664 176.694943,21.8738655 C176.694943,29.4597647 170.548689,35.6347027 162.998027,35.6347027 C155.447366,35.6347027 149.301112,29.4597647 149.301112,21.8738655 Z M112.786524,77.1431263 C112.786524,71.3724526 117.457362,66.6798169 123.201229,66.6798169 L202.794825,66.6798169 C208.538693,66.6798169 213.209531,71.3724526 213.209531,77.1431263 L213.209531,87.281439 L112.786524,87.281439 L112.786524,77.1431263 Z M262.276994,278.41915 C262.276994,287.499241 254.927526,294.883008 245.889614,294.883008 L80.1064416,294.883008 C71.0685288,294.883008 63.7190608,287.499241 63.7190608,278.41915 L63.7190608,111.862289 C63.7190608,102.782197 71.0685288,95.3984305 80.1064416,95.3984305 L245.889614,95.3984305 C254.927526,95.3984305 262.276994,102.782197 262.276994,111.862289 L262.276994,278.41915 Z M270.356281,246.776061 L270.356281,143.501415 C296.924628,145.584416 317.920713,167.922739 317.920713,195.14072 C317.920713,222.354737 296.924628,244.69306 270.356281,246.776061 Z" id="Shape"></path>
                <path d="M158.998014,265.86352 C135.362365,265.86352 116.136797,246.634728 116.136797,223 L108,223 C108,251.120122 130.876797,274 158.998014,274 C187.119231,274 210,251.120122 210,223 L201.863203,223 C201.863203,246.634728 182.633662,265.86352 158.998014,265.86352 Z" id="Path"></path>
                <path d="M225.454562,145 L100.541475,145 C89.2167189,145 80,154.645868 80,166.502074 C80,178.354132 89.2167189,188 100.541475,188 L225.454563,188 C236.783281,188 246,178.354132 246,166.502074 C246,154.645868 236.783281,145 225.454562,145 Z M225.454562,179.506992 L100.541475,179.506992 C93.6903538,179.506992 88.1151505,173.672196 88.1151505,166.502074 C88.1151505,159.327804 93.6903538,153.493008 100.541475,153.493008 L225.454563,153.493008 C232.309646,153.493008 237.88485,159.327804 237.88485,166.502074 C237.884849,173.672196 232.309646,179.506992 225.454562,179.506992 Z" id="Shape"></path>
                <rect id="Rectangle" x="116" y="159" width="58" height="7"></rect>
                <rect id="Rectangle" x="188" y="159" width="15" height="7"></rect>
            </g>
        </g>
    </g>
</svg>